<?xml version="1.0" encoding="UTF-8"?>
<svg width="77px" height="72px" viewBox="0 0 77 72" version="1.1" xmlns="http://www.w3.org/2000/svg" xmlns:xlink="http://www.w3.org/1999/xlink">
    <!-- Generator: Sketch 52.2 (67145) - http://www.bohemiancoding.com/sketch -->
    <title>JA_1.2</title>
    <desc>Created with Sketch.</desc>
    <g id="Admin" stroke="none" stroke-width="1" fill="none" fill-rule="evenodd">
        <g id="Home-page-Cabinet-personal-Copy-2" transform="translate(-430.000000, -806.000000)" fill-rule="nonzero">
            <g id="Group-2" transform="translate(430.000000, 806.000000)">
                <g id="JA_1.2">
                    <polygon id="Shape" fill="#000000" points="38.5 0 50.385906 23.7176471 77 27.5294118 57.7069351 45.9105882 62.2718121 72 38.5 59.7176471 14.7281879 72 19.2069351 45.9105882 0 27.5294118 26.614094 23.7176471"></polygon>
                    <g id="Group" transform="translate(15.000000, 18.000000)" fill="#D9CEB4">
                        <path d="M31.7036364,0.341818182 L16.4072727,33.0709091 L24.3545455,36.4890909 L26.1490909,31.8745455 L37.2581818,31.8745455 L39.0527273,36.4890909 L47,33.0709091 L31.7036364,0.341818182 Z M28.7981818,25.2090909 L31.7036364,17.7745455 L34.6090909,25.2090909 L28.7981818,25.2090909 Z" id="Shape"></path>
                        <path d="M0.427272727,2.90545455 L1.36727273,9.48545455 L5.12727273,9.48545455 L5.12727273,30.1654545 C5.12727273,36.3181818 0.598181818,38.8818182 0.341818182,38.9672727 L4.44363636,46.5727273 C8.71636364,44.2654545 13.6727273,38.54 13.6727273,30.1654545 L13.6727273,2.82 L0.427272727,2.82 L0.427272727,2.90545455 Z" id="Shape"></path>
                    </g>
                </g>
            </g>
        </g>
    </g>
</svg>