<?xml version="1.0" encoding="UTF-8"?>
<svg width="16px" height="16px" viewBox="0 0 16 16" version="1.1" xmlns="http://www.w3.org/2000/svg" xmlns:xlink="http://www.w3.org/1999/xlink">
    <!-- Generator: Sketch 52.2 (67145) - http://www.bohemiancoding.com/sketch -->
    <title>Shape</title>
    <desc>Created with Sketch.</desc>
    <g id="Admin" stroke="none" stroke-width="1" fill="none" fill-rule="evenodd">
        <g id="cart-logged-user-Life-style-deschis" transform="translate(-228.000000, -1400.000000)" fill="#437022" fill-rule="nonzero">
            <g id="Promo-code" transform="translate(119.000000, 1320.000000)">
                <g id="noun_tick_684583" transform="translate(109.000000, 80.000000)">
                    <path d="M8,0 C3.57603687,0 0,3.57603687 0,8 C0,12.4239631 3.57603687,16 8,16 C12.4239631,16 16,12.4239631 16,8 C16,3.57603687 12.4239631,0 8,0 Z M7.31797235,11.0599078 C7.17050691,11.2073733 6.98617512,11.281106 6.80184332,11.281106 C6.61751152,11.281106 6.43317972,11.2073733 6.28571429,11.0599078 L3.94470046,8.73732719 L4.99539171,7.68663594 L6.80184332,9.49308756 L11.0046083,5.29032258 L12.0552995,6.34101382 L7.31797235,11.0599078 Z" id="Shape"></path>
                </g>
            </g>
        </g>
    </g>
</svg>