<?xml version="1.0" encoding="UTF-8"?>
<svg width="25px" height="28px" viewBox="0 0 25 28" version="1.1" xmlns="http://www.w3.org/2000/svg" xmlns:xlink="http://www.w3.org/1999/xlink">
    <!-- Generator: Sketch 52.2 (67145) - http://www.bohemiancoding.com/sketch -->
    <title>Shape</title>
    <desc>Created with Sketch.</desc>
    <g id="Admin" stroke="none" stroke-width="1" fill="none" fill-rule="evenodd">
        <g id="Vezi-ce-ai-in-wish-List-Copy" transform="translate(-1233.000000, -967.000000)" fill="#FFFFFF" fill-rule="nonzero">
            <g id="Group-13" transform="translate(201.000000, 162.000000)">
                <g id="Group-2-Copy">
                    <g id="Group-34" transform="translate(747.000000, 0.000000)">
                        <g id="Group-3">
                            <g id="Butot-vezi-produse" transform="translate(82.000000, 792.000000)">
                                <g id="Group-10" transform="translate(47.000000, 13.000000)">
                                    <path d="M168.5,0 C164.964286,0 162.071429,2.53142227 162.071429,5.6185226 L162.071429,7.93384785 L157.071429,7.93384785 C156.464286,7.93384785 156,8.33517089 156,8.85997795 L156,23.3693495 C156,25.9316428 158.392857,28 161.357143,28 L175.642857,28 C178.607143,28 181,25.9316428 181,23.3693495 L181,8.85997795 C181,8.33517089 180.535714,7.93384785 179.928571,7.93384785 L174.928571,7.93384785 L174.928571,5.6185226 C174.928571,2.53142227 172.035714,0 168.5,0 Z M164,5.71573604 C164,3.6751269 166.025,2 168.5,2 C170.975,2 173,3.6751269 173,5.71573604 L173,8 L164,8 L164,5.71573604 Z M179,10 L179,23.2830189 C179,24.7924528 177.551724,26 175.741379,26 L161.258621,26 C159.448276,26 158,24.7924528 158,23.2830189 L158,10 L161.982759,10 L161.982759,11.5698113 C161.982759,12.0830189 162.453448,12.4754717 163.068966,12.4754717 C163.684483,12.4754717 164.155172,12.0830189 164.155172,11.5698113 L164.155172,10 L172.844828,10 L172.844828,11.5698113 C172.844828,12.0830189 173.315517,12.4754717 173.931034,12.4754717 C174.546552,12.4754717 175.017241,12.0830189 175.017241,11.5698113 L175.017241,10 L179,10 Z" id="Shape"></path>
                                </g>
                            </g>
                        </g>
                    </g>
                </g>
            </g>
        </g>
    </g>
</svg>