<?xml version="1.0" encoding="UTF-8"?>
<svg width="22px" height="25px" viewBox="0 0 22 25" version="1.1" xmlns="http://www.w3.org/2000/svg" xmlns:xlink="http://www.w3.org/1999/xlink">
    <!-- Generator: Sketch 52.2 (67145) - http://www.bohemiancoding.com/sketch -->
    <title>Shape</title>
    <desc>Created with Sketch.</desc>
    <g id="Symbols" stroke="none" stroke-width="1" fill="none" fill-rule="evenodd">
        <g id="Add-to-card" transform="translate(-61.000000, -7.000000)" fill="#FFFFFF" fill-rule="nonzero">
            <g id="Group-17">
                <g id="Group-10" transform="translate(61.000000, 7.000000)">
                    <path d="M11,0 C7.88857143,0 5.34285714,2.26019846 5.34285714,5.01653804 L5.34285714,7.08379272 L0.942857143,7.08379272 C0.408571429,7.08379272 0,7.44211687 0,7.9106946 L0,20.8654906 C0,23.1532525 2.10571429,25 4.71428571,25 L17.2857143,25 C19.8942857,25 22,23.1532525 22,20.8654906 L22,7.9106946 C22,7.44211687 21.5914286,7.08379272 21.0571429,7.08379272 L16.6571429,7.08379272 L16.6571429,5.01653804 C16.6571429,2.26019846 14.1114286,0 11,0 Z M7,5.0964467 C7,3.39593909 8.8,2 11,2 C13.2,2 15,3.39593909 15,5.0964467 L15,7 L7,7 L7,5.0964467 Z M20,9 L20,20.6226415 C20,21.9433962 18.7586207,23 17.2068966,23 L4.79310345,23 C3.24137931,23 2,21.9433962 2,20.6226415 L2,9 L5.4137931,9 L5.4137931,10.3735849 C5.4137931,10.8226415 5.81724138,11.1660377 6.34482759,11.1660377 C6.87241379,11.1660377 7.27586207,10.8226415 7.27586207,10.3735849 L7.27586207,9 L14.7241379,9 L14.7241379,10.3735849 C14.7241379,10.8226415 15.1275862,11.1660377 15.6551724,11.1660377 C16.1827586,11.1660377 16.5862069,10.8226415 16.5862069,10.3735849 L16.5862069,9 L20,9 Z" id="Shape"></path>
                </g>
            </g>
        </g>
    </g>
</svg>