<?xml version="1.0" encoding="UTF-8"?>
<svg width="34px" height="29px" viewBox="0 0 34 29" version="1.1" xmlns="http://www.w3.org/2000/svg" xmlns:xlink="http://www.w3.org/1999/xlink">
    <!-- Generator: Sketch 52.2 (67145) - http://www.bohemiancoding.com/sketch -->
    <title>Shape</title>
    <desc>Created with Sketch.</desc>
    <g id="Admin" stroke="none" stroke-width="1" fill="none" fill-rule="evenodd">
        <g id="Vezi-ce-ai-in-wish-List-Copy" transform="translate(-1245.000000, -1120.000000)" fill-rule="nonzero" stroke="#FFFFFF">
            <g id="Group-13" transform="translate(201.000000, 162.000000)">
                <g id="Group-2-Copy">
                    <g id="Group-34" transform="translate(747.000000, 0.000000)">
                        <g id="Group-3">
                            <g id="Butot-vezi-produse-Copy-2" transform="translate(82.000000, 944.000000)">
                                <g id="Group-7" transform="translate(27.000000, 15.000000)">
                                    <path d="M208.765876,23.8188806 C207.556673,24.8331647 206.312212,25.8770675 205,27 C203.687858,25.8772069 202.443327,24.8332344 201.233912,23.8187412 C193.866903,17.6390234 189,13.5564498 189,8.18974818 C189,5.97148086 189.750796,3.91113354 191.114124,2.38831358 C192.493097,0.84821023 194.407363,0 196.504425,0 C199.416212,0 201.298478,1.76583278 202.364673,3.24718654 C203.321062,4.57577744 203.820106,5.91510077 203.990301,6.42921192 C204.132673,6.85955439 204.540248,7.15079345 205,7.15079345 C205.459752,7.15079345 205.867327,6.85955439 206.009699,6.42921192 C206.179894,5.91510077 206.678938,4.57577744 207.635327,3.24711685 C208.701522,1.76583278 210.583788,0 213.495575,0 C215.592637,0 217.506903,0.84821023 218.885805,2.38831358 C220.249204,3.91113354 221,5.97148086 221,8.18974818 C221,13.5564498 216.133097,17.6390234 208.765876,23.8188806 Z" id="Shape"></path>
                                </g>
                            </g>
                        </g>
                    </g>
                </g>
            </g>
        </g>
    </g>
</svg>