<?xml version="1.0" encoding="UTF-8"?>
<svg width="32px" height="27px" viewBox="0 0 32 27" version="1.1" xmlns="http://www.w3.org/2000/svg" xmlns:xlink="http://www.w3.org/1999/xlink">
    <!-- Generator: Sketch 52.2 (67145) - http://www.bohemiancoding.com/sketch -->
    <title>Shape</title>
    <desc>Created with Sketch.</desc>
    <g id="Symbols" stroke="none" stroke-width="1" fill="none" fill-rule="evenodd">
        <g id="HEader-menu" transform="translate(-1190.000000, -48.000000)" fill="#000000" fill-rule="nonzero">
            <g id="Shape">
                <path d="M1209.76588,71.8188806 C1208.55667,72.8331647 1207.31221,73.8770675 1206,75 C1204.68786,73.8772069 1203.44333,72.8332344 1202.23391,71.8187412 C1194.8669,65.6390234 1190,61.5564498 1190,56.1897482 C1190,53.9714809 1190.7508,51.9111335 1192.11412,50.3883136 C1193.4931,48.8482102 1195.40736,48 1197.50442,48 C1200.41621,48 1202.29848,49.7658328 1203.36467,51.2471865 C1204.32106,52.5757774 1204.82011,53.9151008 1204.9903,54.4292119 C1205.13267,54.8595544 1205.54025,55.1507934 1206,55.1507934 C1206.45975,55.1507934 1206.86733,54.8595544 1207.0097,54.4292119 C1207.17989,53.9151008 1207.67894,52.5757774 1208.63533,51.2471169 C1209.70152,49.7658328 1211.58379,48 1214.49558,48 C1216.59264,48 1218.5069,48.8482102 1219.88581,50.3883136 C1221.2492,51.9111335 1222,53.9714809 1222,56.1897482 C1222,61.5564498 1217.1331,65.6390234 1209.76588,71.8188806 Z"></path>
            </g>
        </g>
    </g>
</svg>