<?xml version="1.0" encoding="UTF-8"?>
<svg width="32px" height="26px" viewBox="0 0 32 26" version="1.1" xmlns="http://www.w3.org/2000/svg" xmlns:xlink="http://www.w3.org/1999/xlink">
    <!-- Generator: Sketch 52.2 (67145) - http://www.bohemiancoding.com/sketch -->
    <title>Shape</title>
    <desc>Created with Sketch.</desc>
    <g id="Collection" stroke="none" stroke-width="1" fill="none" fill-rule="evenodd">
        <g id="One-item--Copy-2" transform="translate(-286.000000, -95.000000)" fill-rule="nonzero" stroke="#FFFFFF" stroke-width="2">
            <g id="Button-Cumpără-produse" transform="translate(272.000000, 90.000000)">
                <g id="Group-19">
                    <g id="Group-6">
                        <path d="M33.4973922,26.4510675 C32.396209,27.3060661 31.2629187,28.1860319 30.0679286,29.1326165 C28.873003,28.1861494 27.7396482,27.3061248 26.6382716,26.4509501 C19.929371,21.2417096 15.4972376,17.8002729 15.4972376,13.2763708 C15.4972376,11.4064653 16.180964,9.6696798 17.422503,8.38600707 C18.6782902,7.08776516 20.4215509,6.37275986 22.3312785,6.37275986 C24.9829509,6.37275986 26.6970702,7.86128211 27.6680198,9.11000061 C28.5389731,10.2299465 28.9934369,11.3589393 29.1484278,11.7923132 C29.2780811,12.1550737 29.6492469,12.4005759 30.0679286,12.4005759 C30.4866103,12.4005759 30.8577761,12.1550737 30.9874295,11.7923132 C31.1424204,11.3589393 31.5968841,10.2299465 32.4678375,9.10994186 C33.4387871,7.86128211 35.1529064,6.37275986 37.8045788,6.37275986 C39.7143064,6.37275986 41.457567,7.08776516 42.7132898,8.38600707 C43.9548932,9.6696798 44.6386197,11.4064653 44.6386197,13.2763708 C44.6386197,17.8002729 40.2064863,21.2417096 33.4973922,26.4510675 Z" id="Shape"></path>
                    </g>
                </g>
            </g>
        </g>
    </g>
</svg>