<?xml version="1.0" encoding="UTF-8"?>
<svg width="128px" height="31px" viewBox="0 0 128 31" version="1.1" xmlns="http://www.w3.org/2000/svg" xmlns:xlink="http://www.w3.org/1999/xlink">
    <!-- Generator: Sketch 52.2 (67145) - http://www.bohemiancoding.com/sketch -->
    <title>Page 1</title>
    <desc>Created with Sketch.</desc>
    <defs>
        <polygon id="path-1" points="0 32 128.404988 32 128.404988 0.9856 0 0.9856"></polygon>
    </defs>
    <g id="Symbols" stroke="none" stroke-width="1" fill="none" fill-rule="evenodd">
        <g id="HEader-menu" transform="translate(-547.000000, -37.000000)">
            <g id="Page-1">
                <g transform="translate(547.000000, 36.000000)">
                    <polygon id="Fill-1" fill="#DFD4BA" points="56.5008096 1 51.4020902 11.2048597 40 12.8408997 48.2495952 20.7844098 46.3017516 32 56.5008096 26.7048597 66.6982484 32 64.7520239 20.7844098 73 12.8408997 61.5979098 11.2048597"></polygon>
                    <polygon id="Fill-2" fill="#1D1D1B" points="118 11 118.414573 14.0957361 121.074749 14.0957361 121.074749 25 125.119975 25 125.119975 14.0957361 128 14.0957361 128 11"></polygon>
                    <g id="Group-16">
                        <path d="M16.412025,19.9656 C16.412025,21.5048 15.947625,22.2456 14.73825,22.2456 C13.528875,22.2456 13.0677,21.5048 13.0677,19.9656 L13.0677,11.332 L8.9139,11.332 L8.9139,20.532 C8.9139,23.5736 10.787625,25.6536 14.73825,25.6536 C18.6904875,25.6536 20.5642125,23.3736 20.5642125,20.532 L20.5642125,11.332 L16.412025,11.332 L16.412025,19.9656 Z" id="Fill-3" fill="#1D1D1B"></path>
                        <polygon id="Fill-5" fill="#1D1D1B" points="27.17514 11.3312 23.024565 11.3312 23.024565 25.2544 31.603065 25.2544 32.028765 22.0944 27.17514 22.0944"></polygon>
                        <mask id="mask-2" fill="white">
                            <use xlink:href="#path-1"></use>
                        </mask>
                        <g id="Clip-8"></g>
                        <polygon id="Fill-7" fill="#1D1D1B" mask="url(#mask-2)" points="33.5706375 25.2544 37.722825 25.2544 37.722825 11.3312 33.5706375 11.3312"></polygon>
                        <polygon id="Fill-9" fill="#1D1D1B" mask="url(#mask-2)" points="78.9704137 11.3312 74.8198388 11.3312 74.8198388 25.2544 83.1613012 25.2544 82.6436887 22.0944 78.9704137 22.0944"></polygon>
                        <polygon id="Fill-10" fill="#1D1D1B" mask="url(#mask-2)" points="88.6155825 11.3312 84.4650075 11.3312 84.4650075 25.2544 93.493395 25.2544 93.9174825 22.0944 88.6155825 22.0944"></polygon>
                        <polygon id="Fill-11" fill="#1D1D1B" mask="url(#mask-2)" points="103.800495 14.19216 104.226195 11.33136 95.0107575 11.33136 95.0107575 25.25456 104.122995 25.25456 104.122995 22.37296 99.162945 22.37296 99.162945 19.57296 103.234508 19.57296 103.234508 16.79216 99.162945 16.79216 99.162945 14.19216"></polygon>
                        <path d="M117.136676,15.75232 C117.136676,12.69152 115.121051,11.33152 111.110764,11.33152 L105.968501,11.33152 L105.968501,25.25472 L110.120689,25.25472 L110.120689,14.15232 L111.007564,14.15232 C112.237901,14.15232 112.903864,14.65312 112.903864,15.75232 C112.903864,16.97312 112.052464,17.50752 110.468989,18.18112 L114.411551,26.54112 L118.138039,24.95232 L114.875951,19.39872 C116.430401,18.45632 117.136676,17.43232 117.136676,15.75232" id="Fill-12" fill="#1D1D1B" mask="url(#mask-2)"></path>
                        <path d="M45.265455,21.71008 L46.6344675,18.25728 L47.9986425,21.71008 L45.265455,21.71008 Z M46.6344675,10.14528 L39.454005,25.38048 L43.1837175,26.97088 L44.0254425,24.84288 L49.238655,24.84288 L50.08038,26.97088 L53.8100925,25.38048 L46.6344675,10.14528 Z" id="Fill-13" fill="#1D1D1B" mask="url(#mask-2)"></path>
                        <path d="M65.1633825,21.71008 L66.532395,18.25728 L67.89657,21.71008 L65.1633825,21.71008 Z M66.532395,10.14528 L59.3519325,25.38048 L63.081645,26.97088 L63.92337,24.84288 L69.138195,24.84288 L69.9783075,26.97088 L73.7096325,25.38048 L66.532395,10.14528 Z" id="Fill-14" fill="#1D1D1B" mask="url(#mask-2)"></path>
                        <path d="M0.04386,11.3312 L0.4679475,14.4112 L2.2255725,14.4112 L2.2255725,24.0464 C2.2255725,26.9136 0.08901,28.1008 0.0003225,28.1488 L1.94016,31.6864 C3.9444975,30.6032 6.284235,27.9536 6.284235,24.0464 L6.284235,11.3312 L0.04386,11.3312 Z" id="Fill-15" fill="#1D1D1B" mask="url(#mask-2)"></path>
                    </g>
                </g>
            </g>
        </g>
    </g>
</svg>